<svg width="58" height="65" viewBox="0 0 58 65" fill="none" xmlns="http://www.w3.org/2000/svg">
<path fill-rule="evenodd" clip-rule="evenodd" d="M5.55175 25.8691L15.5449 35.8622L25.538 25.8691L15.5449 15.8759L5.55175 25.8691ZM15.5449 12.5449L28.8691 25.8691L15.5449 39.1933L2.2207 25.8691L15.5449 12.5449Z" fill="#313131"/>
<path fill-rule="evenodd" clip-rule="evenodd" d="M15.5449 29.2001L18.876 25.8691L15.5449 22.538L12.2139 25.8691L15.5449 29.2001ZM8.88281 25.8691L15.5449 19.207L22.207 25.8691L15.5449 32.5312L8.88281 25.8691Z" fill="#049E9E"/>
<path fill-rule="evenodd" clip-rule="evenodd" d="M45.5244 45.5243L32.2002 32.2001L18.876 45.5243L32.2002 58.8485L45.5244 45.5243ZM48.8554 45.5243L32.2002 62.1796L15.5449 45.5243L32.2002 28.8691L48.8554 45.5243Z" fill="#049E9E"/>
<path fill-rule="evenodd" clip-rule="evenodd" d="M38.8622 45.5243L32.2001 38.8622L25.538 45.5243L32.2001 52.1864L38.8622 45.5243ZM42.1933 45.5243L32.2001 55.5175L22.207 45.5243L32.2001 35.5312L42.1933 45.5243Z" fill="#313131"/>
<path fill-rule="evenodd" clip-rule="evenodd" d="M35.5312 45.5243L32.2001 48.8554L28.8691 45.5243L32.2001 42.1933L35.5312 45.5243Z" fill="#049E9E"/>
<path fill-rule="evenodd" clip-rule="evenodd" d="M25.538 12.2138L32.2001 18.8759L38.8622 12.2138L32.2001 5.55175L25.538 12.2138ZM22.207 12.2138L32.2001 2.2207L42.1933 12.2138L32.2001 22.207L22.207 12.2138Z" fill="#049E9E"/>
<path fill-rule="evenodd" clip-rule="evenodd" d="M28.8691 12.2138L32.2001 8.88278L35.5312 12.2138L32.2001 15.5449L28.8691 12.2138Z" fill="#313131"/>
<path fill-rule="evenodd" clip-rule="evenodd" d="M43.6621 22.331L40.331 25.6621L43.6621 28.9931L46.9931 25.6621L43.6621 22.331ZM50.3242 25.6621L43.6621 32.3242L37 25.6621L43.6621 19L50.3242 25.6621Z" fill="#313131"/>
</svg>
